<?xml version="1.0" encoding="UTF-8"?>
<svg id="_레이어_2" data-name="레이어 2" xmlns="http://www.w3.org/2000/svg" viewBox="0 0 220 190.89">
  <defs>
    <style>
      .cls-1 {
        fill: #fff;
      }

      .cls-2 {
        fill: #ec0002;
      }
    </style>
  </defs>
  <g id="_레이어_1-2" data-name="레이어 1">
    <g>
      <path class="cls-2" d="m0,8.89s69.26-20,147.13,0v24.87s55.87,2.13,72.87-4.87l-43,162h-29.87v-25s-73.13-20.72-147.13.64V8.89Z"/>
      <path class="cls-1" d="m149,72.89c-5-3-34-6-34-6V31.89c-10-1-29-2-29-2v35.28c-12-1.72-35,0-35,0v28.72c25-2,35-.04,35-.04v33.87c10-.17,29,2.17,29,2.17v-34c14,1,34,6,34,6v-29Z"/>
    </g>
  </g>
</svg>