<svg xmlns="http://www.w3.org/2000/svg" viewBox="0 0 75 47">
  <polygon fill="none" stroke="#000" stroke-opacity="1" stroke-width="1" points="1538.586 167.865 1539.235 169.963 1538.804 170.734 1536.434 169.75 1526.25 170.59 1522.807 173.459 1518.217 172.598 1515.779 175.611 1517.07 178.049 1508.754 186.082 1509.324 188.52 1503.73 193.93 1504.486 197.144 1504.562 197.398 1504.376 197.587 1500 202.04 1505.84 202.04 1512.193 196.55 1513.627 195.917 1514.719 196.55 1514.665 203.261 1519.795 208.172 1526.25 205.59 1530.266 206.881 1533.279 203.606 1534.785 202.04 1534.785 199.35 1538.804 195.917 1539.545 195.021 1539.594 196.183 1538.804 199.35 1540.308 202.645 1543.53 203.486 1543.793 203.488 1543.919 203.721 1546.475 209.32 1548.77 208.602 1548.744 203.488 1548.77 203.261 1548.968 203.149 1551.378 201.194 1551.783 195.917 1551.679 195.5 1552.09 195.379 1552.972 194.611 1553.454 194.469 1553.539 194.966 1554.174 198.716 1557.664 199.35 1559.185 197.409 1559.515 197.322 1559.685 197.62 1561.943 198.716 1562.822 200.484 1565.11 200.484 1564.793 196.55 1562.822 194.32 1562.751 194.111 1562.873 193.93 1564.506 192.482 1564.823 192.006 1565.207 192.429 1567.753 194.227 1570 193.254 1568.984 190.529 1569.57 187.784 1568.984 183.68 1567.418 183.68 1565.207 186.082 1562.249 185.561 1561.943 185.772 1561.68 185.508 1560.102 183.192 1555.346 180.768 1555.202 180.625 1555.216 180.422 1555.943 177.475 1557.377 174.607 1555.346 172.168 1550.246 168.645 1547.766 169.012 1546.475 168.645 1545.471 168.645 1543.793 167.434 1541.885 166" transform="translate(-1497 -164)"/>
</svg>
