<?xml version="1.0" encoding="UTF-8"?>
<svg id="_레이어_2" data-name="레이어 2" xmlns="http://www.w3.org/2000/svg" viewBox="0 0 76.74 101.56">
  <defs>
    <style>
      .cls-1, .cls-2 {
        fill: #fff;
      }

      .cls-3 {
        stroke: #000;
      }

      .cls-3, .cls-2, .cls-4 {
        stroke-miterlimit: 10;
      }

      .cls-3, .cls-4 {
        fill: none;
      }

      .cls-2, .cls-4 {
        stroke: #fff;
        stroke-width: 4px;
      }
    </style>
  </defs>
  <g id="_작업" data-name="작업">
    <g>
      <g>
        <path class="cls-1" d="m28.26,91.3c-.06.29.55-4.17-.49-6.99-.5-1.36-20.07-26.1-20.07-26.1-.03-.04-2.64-3.33-2.67-3.37-.77-1.15-6.79-9.15.66-13.1,3.41-1.81,8.09.75,9.84,2.21,2.41,2.01,4.18,4.02,5.66,5.59.35.37.97.12.97-.38v-6.65c0-.42,0-1.1,0-1.52l.14-29.55c0-.42-.02-1.1-.04-1.52,0,0-.5-7.92,6.33-7.92,6.42,0,6.42,8.07,6.42,8.07,0,.42,0,1.1.02,1.52l.37,16.55c0,.42.02,1.1.02,1.52v10.91q0,.42,0,0v-10.91c0-.42-.02-1.1-.03-1.52,0,0-.37-8.08,6.46-8.08s6.83,9.28,6.83,9.28v15.96q0,.42,0,0v-11.73c0-.42,0-1.1-.02-1.52,0,0-.18-6.96,6.44-7.16s6.83,9.28,6.83,9.28c0,.42,0,1.1,0,1.52v15.02q0,.42,0,0v-13.12s0-7.07,6.42-7.07,6.42,8.87,6.42,8.87v8.03c0,.42,0,1.1-.02,1.52,0,0-.38,13.29-2.79,20.52s-2.41,17.71-2.41,17.71v3.57"/>
        <path class="cls-4" d="m28.26,91.3c-.06.29.55-4.17-.49-6.99-.5-1.36-20.07-26.1-20.07-26.1-.03-.04-2.64-3.33-2.67-3.37-.77-1.15-6.79-9.15.66-13.1,3.41-1.81,8.09.75,9.84,2.21,2.41,2.01,4.18,4.02,5.66,5.59.35.37.97.12.97-.38v-6.65c0-.42,0-1.1,0-1.52l.14-29.55c0-.42-.02-1.1-.04-1.52,0,0-.5-7.92,6.33-7.92,6.42,0,6.42,8.07,6.42,8.07,0,.42,0,1.1.02,1.52l.37,16.55c0,.42.02,1.1.02,1.52v10.91q0,.42,0,0v-10.91c0-.42-.02-1.1-.03-1.52,0,0-.37-8.08,6.46-8.08s6.83,9.28,6.83,9.28v15.96q0,.42,0,0v-11.73c0-.42,0-1.1-.02-1.52,0,0-.18-6.96,6.44-7.16s6.83,9.28,6.83,9.28c0,.42,0,1.1,0,1.52v15.02q0,.42,0,0v-13.12s0-7.07,6.42-7.07,6.42,8.87,6.42,8.87v8.03c0,.42,0,1.1-.02,1.52,0,0-.38,13.29-2.79,20.52s-2.41,17.71-2.41,17.71v3.57"/>
      </g>
      <rect class="cls-2" x="26.16" y="91.13" width="45.37" height="8.43" rx="4.22" ry="4.22"/>
    </g>
    <g>
      <path class="cls-3" d="m28.26,91.3c-.06.29.55-4.17-.49-6.99-.5-1.36-20.07-26.1-20.07-26.1-.03-.04-1.62-2.03-1.64-2.06-.82-1.1-7.82-10.45-.36-14.4,3.41-1.81,8.09.75,9.84,2.21,2.41,2.01,4.18,4.02,5.66,5.59.35.37.97.12.97-.38v-6.65c0-.42,0-1.1,0-1.52l-.05-28.54c0-.42-.01-1.1-.03-1.52,0,0-.32-8.92,6.51-8.92,6.42,0,6.42,8.07,6.42,8.07,0,.42,0,1.1.02,1.52l.37,16.55c0,.42.02,1.1.02,1.52v10.91q0,.42,0,0v-10.91c0-.42-.02-1.1-.03-1.52,0,0-.37-8.08,6.46-8.08s6.83,9.28,6.83,9.28v15.96q0,.42,0,0v-11.73c0-.42,0-1.1-.02-1.52,0,0-.18-6.96,6.44-7.16s6.83,9.28,6.83,9.28c0,.42,0,1.1,0,1.52v15.02q0,.42,0,0v-13.12s0-7.07,6.42-7.07,6.42,8.87,6.42,8.87v8.03c0,.42,0,1.1-.02,1.52,0,0-.38,13.29-2.79,20.52s-2.41,17.71-2.41,17.71v3.57"/>
      <rect class="cls-3" x="26.16" y="91.13" width="45.37" height="8.43" rx="4.22" ry="4.22"/>
    </g>
  </g>
</svg>