<?xml version="1.0" encoding="UTF-8"?>
<svg id="_레이어_2" data-name="레이어 2" xmlns="http://www.w3.org/2000/svg" xmlns:xlink="http://www.w3.org/1999/xlink" viewBox="0 0 102.19 131.52">
  <defs>
    <style>
      .cls-1, .cls-2 {
        fill: #fff;
      }

      .cls-3, .cls-4, .cls-5 {
        fill: none;
      }

      .cls-3, .cls-2 {
        stroke: #fff;
        stroke-width: 16.2px;
      }

      .cls-3, .cls-2, .cls-5 {
        stroke-miterlimit: 10;
      }

      .cls-4 {
        filter: url(#drop-shadow-1);
      }

      .cls-5 {
        stroke: #000;
        stroke-width: 5.4px;
      }
    </style>
    <filter id="drop-shadow-1" filterUnits="userSpaceOnUse">
      <feOffset dx="8" dy="9"/>
      <feGaussianBlur result="blur" stdDeviation="5"/>
      <feFlood flood-color="#000" flood-opacity=".48"/>
      <feComposite in2="blur" operator="in"/>
      <feComposite in="SourceGraphic"/>
    </filter>
  </defs>
  <g id="_작업" data-name="작업">
    <g class="cls-4">
      <g>
        <g>
          <path class="cls-1" d="m39.14,113.66c-.07.35.64-4.93-.58-8.27-.59-1.61-23.73-30.85-23.73-30.85-.03-.04-3.12-3.93-3.15-3.98-.91-1.36-8.03-10.82.78-15.48,4.03-2.14,9.56.89,11.63,2.61,2.85,2.37,4.95,4.75,6.68,6.6.41.44,1.15.15,1.15-.45v-7.86c0-.49,0-1.3,0-1.8l.16-34.92c0-.49-.02-1.3-.05-1.8,0,0-.59-9.36,7.48-9.36,7.59,0,7.59,9.54,7.59,9.54,0,.49,0,1.3.02,1.8l.43,19.57c.01.49.02,1.3.02,1.8v12.9q0,.49,0,0v-12.9c0-.49-.02-1.3-.04-1.8,0,0-.43-9.55,7.63-9.55s8.07,10.96,8.07,10.96v18.86q0,.49,0,0v-13.87c0-.49-.01-1.3-.02-1.8,0,0-.21-8.22,7.62-8.46,8.06-.24,8.07,10.96,8.07,10.96,0,.49,0,1.3,0,1.8v17.75q0,.49,0,0v-15.51s0-8.36,7.59-8.36,7.59,10.49,7.59,10.49v9.49c0,.49-.01,1.3-.03,1.8,0,0-.45,15.71-3.3,24.25-2.85,8.54-2.85,20.93-2.85,20.93v4.22"/>
          <path class="cls-3" d="m39.14,113.66c-.07.35.64-4.93-.58-8.27-.59-1.61-23.73-30.85-23.73-30.85-.03-.04-3.12-3.93-3.15-3.98-.91-1.36-8.03-10.82.78-15.48,4.03-2.14,9.56.89,11.63,2.61,2.85,2.37,4.95,4.75,6.68,6.6.41.44,1.15.15,1.15-.45v-7.86c0-.49,0-1.3,0-1.8l.16-34.92c0-.49-.02-1.3-.05-1.8,0,0-.59-9.36,7.48-9.36,7.59,0,7.59,9.54,7.59,9.54,0,.49,0,1.3.02,1.8l.43,19.57c.01.49.02,1.3.02,1.8v12.9q0,.49,0,0v-12.9c0-.49-.02-1.3-.04-1.8,0,0-.43-9.55,7.63-9.55s8.07,10.96,8.07,10.96v18.86q0,.49,0,0v-13.87c0-.49-.01-1.3-.02-1.8,0,0-.21-8.22,7.62-8.46,8.06-.24,8.07,10.96,8.07,10.96,0,.49,0,1.3,0,1.8v17.75q0,.49,0,0v-15.51s0-8.36,7.59-8.36,7.59,10.49,7.59,10.49v9.49c0,.49-.01,1.3-.03,1.8,0,0-.45,15.71-3.3,24.25-2.85,8.54-2.85,20.93-2.85,20.93v4.22"/>
        </g>
        <rect class="cls-2" x="36.66" y="113.46" width="53.63" height="9.97" rx="4.98" ry="4.98"/>
      </g>
      <g>
        <path class="cls-5" d="m39.14,113.66c-.07.35.64-4.93-.58-8.27-.59-1.61-23.73-30.85-23.73-30.85-.03-.04-1.91-2.4-1.94-2.44-.97-1.3-9.24-12.35-.43-17.02,4.03-2.14,9.56.89,11.63,2.61,2.85,2.37,4.95,4.75,6.68,6.6.41.44,1.15.15,1.15-.45v-7.86c0-.49,0-1.3,0-1.8l-.06-33.74c0-.49-.02-1.3-.03-1.8,0,0-.37-10.55,7.69-10.55,7.59,0,7.59,9.54,7.59,9.54,0,.49,0,1.3.02,1.8l.43,19.57c.01.49.02,1.3.02,1.8v12.9q0,.49,0,0v-12.9c0-.49-.02-1.3-.04-1.8,0,0-.43-9.55,7.63-9.55s8.07,10.96,8.07,10.96v18.86q0,.49,0,0v-13.87c0-.49-.01-1.3-.02-1.8,0,0-.21-8.22,7.62-8.46,8.06-.24,8.07,10.96,8.07,10.96,0,.49,0,1.3,0,1.8v17.75q0,.49,0,0v-15.51s0-8.36,7.59-8.36,7.59,10.49,7.59,10.49v9.49c0,.49-.01,1.3-.03,1.8,0,0-.45,15.71-3.3,24.25-2.85,8.54-2.85,20.93-2.85,20.93v4.22"/>
        <rect class="cls-5" x="36.66" y="113.46" width="53.63" height="9.97" rx="4.98" ry="4.98"/>
      </g>
    </g>
  </g>
</svg>