<?xml version="1.0" encoding="UTF-8"?>
<svg id="_레이어_2" data-name="레이어 2" xmlns="http://www.w3.org/2000/svg" viewBox="0 0 187.44 250">
  <defs>
    <style>
      .cls-1, .cls-2 {
        fill: #fff;
      }

      .cls-3, .cls-4 {
        fill: none;
      }

      .cls-3, .cls-2 {
        stroke: #ff1d25;
        stroke-miterlimit: 10;
        stroke-width: 7px;
      }

      .cls-4 {
        opacity: .99;
      }
    </style>
  </defs>
  <g id="_작업" data-name="작업">
    <g class="cls-4">
      <g>
        <path class="cls-1" d="m68.17,225.92c-.15.73,1.36-10.39-1.23-17.42-1.24-3.38-50-65-50-65-.07-.09-4.03-5.05-4.09-5.14-1.92-2.87-19.47-26.03-.91-35.86,8.5-4.5,20.15,1.88,24.5,5.5,6,5,10.42,10.01,14.09,13.91.87.92,2.41.31,2.41-.96V24.54c0-.55-.02-1.45-.05-2,0,0-.95-19.04,16.05-19.04,16,0,16,21,16,21,0,.55,0,1.45.02,2l.96,43.02c.01.55.02,1.45.02,2v28.98q0,.55,0,0v-28.98c0-.55-.02-1.45-.05-2,0,0-.95-21.02,16.05-21.02s17,24,17,24v39.74q0,.55,0,0v-31.02c0-.55-.01-1.45-.03-2,0,0-.47-18.22,16.03-18.72s17,24,17,24c0,.55,0,1.45,0,2v39.19q0,.55,0,0v-32.68s0-18.51,16-18.51,16,23,16,23v20c0,.55-.01,1.45-.03,2,0,0-.97,34-6.97,52s-6,45-6,45v8"/>
        <path class="cls-3" d="m68.17,225.92c-.15.73,1.36-10.39-1.23-17.42-1.24-3.38-50-65-50-65-.07-.09-4.03-5.05-4.09-5.14-1.92-2.87-19.47-26.03-.91-35.86,8.5-4.5,20.15,1.88,24.5,5.5,6,5,10.42,10.01,14.09,13.91.87.92,2.41.31,2.41-.96V24.54c0-.55-.02-1.45-.05-2,0,0-.95-19.04,16.05-19.04,16,0,16,21,16,21,0,.55,0,1.45.02,2l.96,43.02c.01.55.02,1.45.02,2v28.98q0,.55,0,0v-28.98c0-.55-.02-1.45-.05-2,0,0-.95-21.02,16.05-21.02s17,24,17,24v39.74q0,.55,0,0v-31.02c0-.55-.01-1.45-.03-2,0,0-.47-18.22,16.03-18.72s17,24,17,24c0,.55,0,1.45,0,2v39.19q0,.55,0,0v-32.68s0-18.51,16-18.51,16,23,16,23v20c0,.55-.01,1.45-.03,2,0,0-.97,34-6.97,52s-6,45-6,45v8"/>
      </g>
      <rect class="cls-2" x="62.94" y="225.5" width="113" height="21" rx="10.27" ry="10.27"/>
    </g>
  </g>
</svg>